<?xml version="1.0" encoding="UTF-8" standalone="no"?>
<svg
   width="6915.9316"
   height="6922.5518"
   viewBox="0 0 1829.8403 1831.5918"
   version="1.1"
   id="svg72"
   sodipodi:docname="logo.svg"
   inkscape:version="1.2.2 (b0a8486541, 2022-12-01)"
   xmlns:inkscape="http://www.inkscape.org/namespaces/inkscape"
   xmlns:sodipodi="http://sodipodi.sourceforge.net/DTD/sodipodi-0.dtd"
   xmlns="http://www.w3.org/2000/svg"
   xmlns:svg="http://www.w3.org/2000/svg">
  <defs
     id="defs76" />
  <sodipodi:namedview
     id="namedview74"
     pagecolor="#505050"
     bordercolor="#ffffff"
     borderopacity="1"
     inkscape:showpageshadow="0"
     inkscape:pageopacity="0"
     inkscape:pagecheckerboard="1"
     inkscape:deskcolor="#505050"
     showgrid="false"
     showborder="false"
     inkscape:zoom="0.056568542"
     inkscape:cx="2766.5553"
     inkscape:cy="3526.6951"
     inkscape:window-width="1366"
     inkscape:window-height="702"
     inkscape:window-x="0"
     inkscape:window-y="29"
     inkscape:window-maximized="1"
     inkscape:current-layer="svg72" />
  <path
     style="opacity:0.996;fill:#1f8ab4;fill-opacity:1;stroke:#1f8ab4;stroke-width:10.6149px;stroke-linecap:butt;stroke-linejoin:miter;stroke-opacity:1"
     d="m 1696.2871,443.79791 c -14.6435,-24.8739 -29.287,-49.6675 -48.6245,-76.0258 a 756.12582,756.12582 0 0 0 -69.0048,-79.9976 988.85702,988.85702 0 0 0 -82.4049,-74.2205 1224.838,1224.838 0 0 0 -96.1254,-70.9707 705.17449,705.17449 0 0 0 -101.7824,-56.327399 1038.9257,1038.9257 0 0 0 -118.512,-43.449 1377.4915,1377.4915 0 0 0 -109.5654,-28.8858 c -28.3642,-6.0179001 -44.6125,-7.6628001 -52.6764,-8.5053001 -8.1041,-0.8024 -8.064,-0.8425 -51.51305,72.4151001 L 792.24192,370.82121 c -43.3688,73.2174 -43.20834,73.097 -42.96761,73.1371 0.24069,0 0.52147,0.2007 158.35032,0.2007 157.86887,0 473.24557,-0.1611 788.66247,-0.321 z"
     id="path56" />
  <path
     style="opacity:0.996;fill:#1f8ab4;fill-opacity:1;stroke:#1f8ab4;stroke-width:10.6149px;stroke-linecap:butt;stroke-linejoin:miter;stroke-opacity:1"
     d="m 1745.754,528.52951 -506.8655,-4.2927 476.375,829.86479 c 19.3374,-41.8442 38.6748,-83.6484 54.0405,-124.57 15.3255,-40.8814 26.6793,-80.8401 34.9037,-120.1167 8.2244,-39.2767 13.3195,-77.8713 16.4488,-111.21033 3.0491,-33.33902 4.1724,-61.42244 3.8113,-92.79562 a 1171.3993,1171.3993 0 0 0 -5.3759,-99.53564 c -3.2497,-33.4995 -8.024,-65.79544 -16.1681,-101.5015 -8.1442,-35.706 -19.6584,-74.8623 -29.7684,-104.711 a 960.37249,960.37249 0 0 0 -27.4014,-71.1313 z"
     id="path58" />
  <path
     style="opacity:0.996;fill:#1f8ab4;fill-opacity:1;stroke:#1f8ab4;stroke-width:10.6149px;stroke-linecap:butt;stroke-linejoin:miter;stroke-opacity:1"
     d="m 1661.7444,1441.6015 -248.5381,-432.2438 -472.92467,816.3446 c 46.81906,-2.8083 93.63817,-5.6968 143.14517,-15.0847 49.507,-9.3879 101.7422,-25.2751 147.2774,-42.2054 a 1016.1782,1016.1782 0 0 0 112.8953,-49.7477 c 28.4846,-14.804 46.5784,-26.4787 71.9337,-44.6125 a 1417.9716,1417.9716 0 0 0 83.2874,-64.1506 804.38919,804.38919 0 0 0 63.629,-60.5398 c 20.0595,-20.7817 42.0449,-44.0508 58.8949,-62.4254 16.85,-18.3746 28.6451,-31.8546 40.3999,-45.3347 z"
     id="path60" />
  <path
     style="opacity:0.996;fill:#1f8ab4;fill-opacity:1;stroke:#1f8ab4;stroke-width:10.6149px;stroke-linecap:butt;stroke-linejoin:miter;stroke-opacity:1"
     d="m 845.39982,1825.0605 250.98548,-424.8619 -950.02173,-2.8084 c 16.85002,24.0314 33.70008,48.0628 54.56205,74.2205 20.86195,26.2379 45.73583,54.562 73.81925,83.2472 28.08341,28.6852 59.37636,57.6914 95.60397,84.5712 36.22759,26.8799 77.34972,51.5531 116.34556,73.8193 39.03594,22.3062 75.90545,42.1251 111.61149,57.2099 35.70607,15.1249 70.3289,25.5158 103.1865,33.2989 32.81746,7.8232 63.94995,12.9986 87.62025,16.0878 23.71041,3.1293 39.9988,4.1724 56.28718,5.2155 z"
     id="path62" />
  <path
     style="opacity:0.996;fill:#1f8ab4;fill-opacity:1;stroke:#1f8ab4;stroke-width:10.6149px;stroke-linecap:butt;stroke-linejoin:miter;stroke-opacity:1"
     d="m 95.291865,1311.3747 503.014025,5.2155 -475.85336,-836.88569 c -15.16504,25.4757 -30.289964,50.9514 -41.844281,73.057 -11.514186,22.1057 -19.417668,40.8012 -26.278054,59.0955 -6.860371,18.2944 -12.677639,36.2276 -17.973378,56.1267 A 1306.681,1306.681 0 0 0 21.432499,732.1744 c -4.774184,22.46674 -9.468136,45.53526 -12.2363566,70.16841 -2.768213,24.59306 -3.610717,50.75075 -3.811318,74.01987 -0.24068,23.26911 0.121236,43.72988 0.521463,63.90981 0.401158,20.17994 0.842439,40.11917 1.685086,59.53685 0.842433,19.45776 2.086181,38.39406 4.7741696,55.92606 2.687982,17.5321 6.860378,33.7001 11.835163,52.4358 4.934647,18.6554 10.671697,39.8784 16.408725,59.7775 5.696926,19.859 11.393846,38.354 18.093747,56.3675 6.6999,18.0135 14.362652,35.4653 20.621258,49.9082 6.258576,14.4429 11.113013,25.7966 15.967429,37.1503 z"
     id="path64" />
  <path
     style="opacity:0.995004;fill:#1f8ab4;fill-opacity:1;fill-rule:nonzero;stroke:#1f8ab4;stroke-width:10.6316;stroke-linecap:butt;stroke-linejoin:miter;stroke-miterlimit:4;stroke-dasharray:none;stroke-opacity:1"
     d="M 173.60445,403.83921 430.00603,837.36685 904.6157,14.201911 a 982.91949,982.91949 0 0 0 -83.84905,4.3329 c -30.972,3.2095 -66.47744,9.0268 -100.97992,17.1709 a 722.14488,722.14488 0 0 0 -102.94577,32.617 1159.4437,1159.4437 0 0 0 -106.55649,49.868099 c -35.58571,18.6554 -70.60973,38.6748 -100.05719,58.5338 -29.44747,19.859 -53.31836,39.5174 -75.70486,57.7717 -22.42662,18.2141 -43.36882,34.9036 -61.9841,52.7967 -18.57518,17.8932 -34.78331,36.9097 -50.87111,56.528 -16.04765,19.5781 -32.09533,39.7981 -48.06276,60.0182 z"
     id="path66" />
</svg>
