<?xml version="1.0" encoding="UTF-8" standalone="no"?>
<svg
   width="17679.104"
   height="6922.5518"
   viewBox="0 0 4677.5963 1831.5918"
   version="1.1"
   id="svg72"
   sodipodi:docname="logo-white-horizontal-short.svg"
   inkscape:version="1.2.2 (b0a8486541, 2022-12-01)"
   inkscape:export-filename="rendered/logo-horizontal-short.svg"
   inkscape:export-xdpi="96"
   inkscape:export-ydpi="96"
   xmlns:inkscape="http://www.inkscape.org/namespaces/inkscape"
   xmlns:sodipodi="http://sodipodi.sourceforge.net/DTD/sodipodi-0.dtd"
   xmlns="http://www.w3.org/2000/svg"
   xmlns:svg="http://www.w3.org/2000/svg">
  <defs
     id="defs76">
    <rect
       x="-902.00677"
       y="7165.3579"
       width="10990.596"
       height="4434.7515"
       id="rect4787" />
  </defs>
  <sodipodi:namedview
     id="namedview74"
     pagecolor="#505050"
     bordercolor="#ffffff"
     borderopacity="1"
     inkscape:showpageshadow="0"
     inkscape:pageopacity="0"
     inkscape:pagecheckerboard="1"
     inkscape:deskcolor="#505050"
     showgrid="false"
     showborder="false"
     inkscape:zoom="0.04"
     inkscape:cx="9062.5"
     inkscape:cy="3937.5"
     inkscape:window-width="1366"
     inkscape:window-height="702"
     inkscape:window-x="0"
     inkscape:window-y="29"
     inkscape:window-maximized="1"
     inkscape:current-layer="svg72" />
  <g
     id="g4731"
     style="fill:#ffffff;stroke:#ffffff;fill-opacity:1;stroke-opacity:1">
    <path
       style="opacity:0.996;fill:#ffffff;fill-opacity:1;stroke:#ffffff;stroke-width:10.6149px;stroke-linecap:butt;stroke-linejoin:miter;stroke-opacity:1"
       d="m 1696.2871,443.79791 c -14.6435,-24.8739 -29.287,-49.6675 -48.6245,-76.0258 a 756.12582,756.12582 0 0 0 -69.0048,-79.9976 988.85702,988.85702 0 0 0 -82.4049,-74.2205 1224.838,1224.838 0 0 0 -96.1254,-70.9707 705.17449,705.17449 0 0 0 -101.7824,-56.327399 1038.9257,1038.9257 0 0 0 -118.512,-43.449 1377.4915,1377.4915 0 0 0 -109.5654,-28.8858 c -28.3642,-6.0179001 -44.6125,-7.6628001 -52.6764,-8.5053001 -8.1041,-0.8024 -8.064,-0.8425 -51.51305,72.4151001 L 792.24192,370.82121 c -43.3688,73.2174 -43.20834,73.097 -42.96761,73.1371 0.24069,0 0.52147,0.2007 158.35032,0.2007 157.86887,0 473.24557,-0.1611 788.66247,-0.321 z"
       id="path56" />
    <path
       style="opacity:0.996;fill:#ffffff;fill-opacity:1;stroke:#ffffff;stroke-width:10.6149px;stroke-linecap:butt;stroke-linejoin:miter;stroke-opacity:1"
       d="m 1745.754,528.52951 -506.8655,-4.2927 476.375,829.86479 c 19.3374,-41.8442 38.6748,-83.6484 54.0405,-124.57 15.3255,-40.8814 26.6793,-80.8401 34.9037,-120.1167 8.2244,-39.2767 13.3195,-77.8713 16.4488,-111.21033 3.0491,-33.33902 4.1724,-61.42244 3.8113,-92.79562 a 1171.3993,1171.3993 0 0 0 -5.3759,-99.53564 c -3.2497,-33.4995 -8.024,-65.79544 -16.1681,-101.5015 -8.1442,-35.706 -19.6584,-74.8623 -29.7684,-104.711 a 960.37249,960.37249 0 0 0 -27.4014,-71.1313 z"
       id="path58" />
    <path
       style="opacity:0.996;fill:#ffffff;fill-opacity:1;stroke:#ffffff;stroke-width:10.6149px;stroke-linecap:butt;stroke-linejoin:miter;stroke-opacity:1"
       d="m 1661.7444,1441.6015 -248.5381,-432.2438 -472.92467,816.3446 c 46.81906,-2.8083 93.63817,-5.6968 143.14517,-15.0847 49.507,-9.3879 101.7422,-25.2751 147.2774,-42.2054 a 1016.1782,1016.1782 0 0 0 112.8953,-49.7477 c 28.4846,-14.804 46.5784,-26.4787 71.9337,-44.6125 a 1417.9716,1417.9716 0 0 0 83.2874,-64.1506 804.38919,804.38919 0 0 0 63.629,-60.5398 c 20.0595,-20.7817 42.0449,-44.0508 58.8949,-62.4254 16.85,-18.3746 28.6451,-31.8546 40.3999,-45.3347 z"
       id="path60" />
    <path
       style="opacity:0.996;fill:#ffffff;fill-opacity:1;stroke:#ffffff;stroke-width:10.6149px;stroke-linecap:butt;stroke-linejoin:miter;stroke-opacity:1"
       d="m 845.39982,1825.0605 250.98548,-424.8619 -950.02173,-2.8084 c 16.85002,24.0314 33.70008,48.0628 54.56205,74.2205 20.86195,26.2379 45.73583,54.562 73.81925,83.2472 28.08341,28.6852 59.37636,57.6914 95.60397,84.5712 36.22759,26.8799 77.34972,51.5531 116.34556,73.8193 39.03594,22.3062 75.90545,42.1251 111.61149,57.2099 35.70607,15.1249 70.3289,25.5158 103.1865,33.2989 32.81746,7.8232 63.94995,12.9986 87.62025,16.0878 23.71041,3.1293 39.9988,4.1724 56.28718,5.2155 z"
       id="path62" />
    <path
       style="opacity:0.996;fill:#ffffff;fill-opacity:1;stroke:#ffffff;stroke-width:10.6149px;stroke-linecap:butt;stroke-linejoin:miter;stroke-opacity:1"
       d="m 95.291865,1311.3747 503.014025,5.2155 -475.85336,-836.88569 c -15.16504,25.4757 -30.289964,50.9514 -41.844281,73.057 -11.514186,22.1057 -19.417668,40.8012 -26.278054,59.0955 -6.860371,18.2944 -12.677639,36.2276 -17.973378,56.1267 A 1306.681,1306.681 0 0 0 21.432499,732.1744 c -4.774184,22.46674 -9.468136,45.53526 -12.2363566,70.16841 -2.768213,24.59306 -3.610717,50.75075 -3.811318,74.01987 -0.24068,23.26911 0.121236,43.72988 0.521463,63.90981 0.401158,20.17994 0.842439,40.11917 1.685086,59.53685 0.842433,19.45776 2.086181,38.39406 4.7741696,55.92606 2.687982,17.5321 6.860378,33.7001 11.835163,52.4358 4.934647,18.6554 10.671697,39.8784 16.408725,59.7775 5.696926,19.859 11.393846,38.354 18.093747,56.3675 6.6999,18.0135 14.362652,35.4653 20.621258,49.9082 6.258576,14.4429 11.113013,25.7966 15.967429,37.1503 z"
       id="path64" />
    <path
       style="opacity:0.995004;fill:#ffffff;fill-opacity:1;fill-rule:nonzero;stroke:#ffffff;stroke-width:10.6316;stroke-linecap:butt;stroke-linejoin:miter;stroke-miterlimit:4;stroke-dasharray:none;stroke-opacity:1"
       d="M 173.60445,403.83921 430.00603,837.36685 904.6157,14.201911 a 982.91949,982.91949 0 0 0 -83.84905,4.3329 c -30.972,3.2095 -66.47744,9.0268 -100.97992,17.1709 a 722.14488,722.14488 0 0 0 -102.94577,32.617 1159.4437,1159.4437 0 0 0 -106.55649,49.868099 c -35.58571,18.6554 -70.60973,38.6748 -100.05719,58.5338 -29.44747,19.859 -53.31836,39.5174 -75.70486,57.7717 -22.42662,18.2141 -43.36882,34.9036 -61.9841,52.7967 -18.57518,17.8932 -34.78331,36.9097 -50.87111,56.528 -16.04765,19.5781 -32.09533,39.7981 -48.06276,60.0182 z"
       id="path66" />
  </g>
  <g
     id="g5078"
     transform="matrix(0.6103994,0,0,0.6103994,861.93459,-4.3146907)"
     style="fill:#ffffff;stroke:#ffffff;fill-opacity:1;stroke-opacity:1">
    <g
       id="g5055"
       style="fill:#ffffff;stroke:#ffffff;fill-opacity:1;stroke-opacity:1">
      <path
         d="m 2800.878,1019.5324 q 0,83.0084 -42.8032,138.7694 -41.5042,54.4947 -112.8375,81.742 -70.0383,26.1444 -154.3457,26.1444 -89.4914,0 -147.8587,-13.0722 -57.0683,-11.8467 -103.7605,-24.5103 v -37.5826 q 51.8802,17.9743 112.8416,31.0465 62.2563,11.8466 141.3716,11.8466 73.9314,0 134.8886,-22.0593 62.2563,-23.2848 99.8715,-70.0179 37.6234,-47.9994 37.6234,-123.2462 0,-64.82986 -31.1281,-103.76047 -31.1282,-40.03357 -89.4914,-66.13709 -57.0683,-27.36989 -137.4827,-51.88024 -75.2263,-24.51035 -133.5936,-51.88024 -58.3632,-28.59541 -92.0854,-73.93956 -32.4354,-46.69221 -32.4354,-123.20536 0,-77.82036 38.8898,-129.7006 40.197,-51.88024 106.3545,-77.82036 67.4443,-25.73586 149.1577,-25.73586 60.9573,0 118.0255,11.84666 58.3673,10.21265 115.4356,36.35702 l -14.2569,29.82093 q -59.6622,-25.73587 -115.4314,-35.1315 -54.4743,-10.21265 -106.3545,-10.21265 -68.7434,0 -127.1066,20.8338 -58.3673,20.8338 -94.6835,64.82987 -35.009,42.81142 -35.009,112.87017 0,70.01789 32.4354,111.52209 32.4354,41.50419 86.9015,66.13709 55.7692,23.28483 121.9185,44.11863 83.0084,25.73587 143.9656,55.76105 62.2563,28.5954 95.9785,75.24677 35.0089,45.385 35.0089,121.89815 z"
         id="path4841"
         style="font-weight:100;font-size:12px;font-family:'Noto Sans';-inkscape-font-specification:'Noto Sans, Thin';white-space:pre;fill:#ffffff;stroke:#ffffff;stroke-width:108.084;fill-opacity:1;stroke-opacity:1" />
      <path
         d="m 3004.506,317.84191 q 23.3665,0 28.5545,13.07219 6.4953,11.84667 6.4953,27.36989 0,16.74874 -6.4953,28.59541 -5.188,11.84667 -28.5545,11.84667 -19.4449,0 -25.9402,-11.84667 -6.4952,-11.84667 -6.4952,-28.59541 0,-15.52322 6.4952,-27.36989 6.4953,-13.07219 25.9402,-13.07219 z m 16.8712,250.33238 v 684.81921 h -33.7017 V 568.17429 Z"
         id="path4843"
         style="font-weight:100;font-size:12px;font-family:'Noto Sans';-inkscape-font-specification:'Noto Sans, Thin';white-space:pre;fill:#ffffff;stroke:#ffffff;stroke-width:108.084;fill-opacity:1;stroke-opacity:1" />
      <path
         d="m 3506.4493,1265.9839 q -147.8587,0 -219.196,-88.1964 -71.3333,-88.1964 -71.3333,-254.21314 0,-177.70004 77.8203,-272.39169 77.8204,-95.95802 223.0851,-95.95802 93.3844,0 150.4527,46.69222 58.3632,45.38499 79.1153,114.13653 h 2.451 q -1.2255,-44.11863 -2.451,-85.62283 0,-41.50419 0,-81.70116 V 267.26889 h 33.7017 v 985.72461 h -28.5545 l -2.4511,-146.5719 h -2.451 q -23.3665,64.8707 -80.4144,112.8701 -57.0682,46.6922 -159.5297,46.6922 z m 0,-32.2719 q 129.7006,0 184.1749,-84.3156 55.7692,-85.582 55.7692,-237.34191 v -4.08506 q 0,-155.64072 -57.0683,-237.38273 -57.0682,-83.00839 -172.4997,-83.00839 -128.4057,0 -197.1449,84.31561 -68.7434,83.00838 -68.7434,251.63959 0,155.64069 62.2563,233.46109 63.5553,76.5131 193.2559,76.5131 z"
         id="path4845"
         style="font-weight:100;font-size:12px;font-family:'Noto Sans';-inkscape-font-specification:'Noto Sans, Thin';white-space:pre;fill:#ffffff;stroke:#ffffff;stroke-width:108.084;fill-opacity:1;stroke-opacity:1" />
      <path
         d="m 4029.1407,317.84191 q 23.3257,0 28.5546,13.07219 6.4952,11.84667 6.4952,27.36989 0,16.74874 -6.4952,28.59541 -5.1881,11.84667 -28.5546,11.84667 -19.4449,0 -25.9401,-11.84667 -6.4953,-11.84667 -6.4953,-28.59541 0,-15.52322 6.4953,-27.36989 6.4952,-13.07219 25.9401,-13.07219 z m 16.8713,250.33238 v 684.81921 h -33.7017 V 568.17429 Z"
         id="path4847"
         style="font-weight:100;font-size:12px;font-family:'Noto Sans';-inkscape-font-specification:'Noto Sans, Thin';white-space:pre;fill:#ffffff;stroke:#ffffff;stroke-width:108.084;fill-opacity:1;stroke-opacity:1" />
      <path
         d="m 4564.8062,555.22465 q 111.5425,0 172.5039,60.94907 60.9572,60.94907 60.9572,188.07608 v 448.7437 h -33.7017 V 805.51617 q 0,-114.13653 -53.1752,-166.01677 -51.8803,-51.88024 -146.5638,-51.88024 -111.5425,0 -181.5808,67.44432 -68.7393,66.17794 -68.7393,206.25459 v 391.67543 h -33.7017 V 568.17429 h 27.2473 l 5.1881,143.95745 h 2.451 q 15.5641,-40.03357 45.3973,-75.20592 31.1281,-36.35702 80.4143,-58.37549 50.5812,-23.28483 123.2136,-23.28483 z"
         id="path4849"
         style="font-weight:100;font-size:12px;font-family:'Noto Sans';-inkscape-font-specification:'Noto Sans, Thin';white-space:pre;fill:#ffffff;stroke:#ffffff;stroke-width:108.084;fill-opacity:1;stroke-opacity:1" />
      <path
         d="m 5283.3476,555.22465 q 94.6834,0 145.2646,37.58254 51.8803,36.35702 79.1194,93.38443 h 2.4511 l 6.4952,-118.01733 h 28.5546 v 717.25451 q 0,81.7012 -28.5546,143.9575 -27.2473,63.5635 -89.4914,98.5724 -62.2562,36.3571 -166.0167,36.3571 -79.1194,0 -137.4827,-14.2978 -57.0682,-14.2977 -103.7604,-33.9059 v -38.8081 q 46.6922,22.0593 107.6494,37.5825 60.9613,16.7488 133.5937,16.7488 137.4826,0 193.2518,-67.4443 57.0683,-67.4443 57.0683,-178.9664 v -54.4947 q 0,-37.5825 0,-64.8299 1.2255,-27.3699 2.451,-64.8707 h -2.451 q -23.3665,80.4348 -86.8974,123.2462 -63.5553,41.5042 -159.5338,41.5042 -132.2946,0 -207.5209,-86.93 -73.9273,-88.1965 -73.9273,-258.09403 0,-169.89758 75.2263,-267.16282 75.2264,-98.57245 224.38,-98.57245 z m 0,32.27196 q -136.1836,0 -201.0339,88.19641 -63.5554,88.19641 -63.5554,245.14435 0,153.06713 63.5554,233.46113 64.8503,79.1275 182.8758,79.1275 76.5254,0 124.5125,-25.7358 47.9913,-27.3699 73.9314,-70.0588 27.2474,-44.0778 37.6234,-97.2652 10.3761,-53.18748 10.3761,-106.33409 v -62.25629 q 0,-81.74202 -20.7521,-145.26468 -20.7521,-64.87072 -70.0384,-101.18689 -49.2862,-37.58254 -137.4826,-37.58254 z"
         id="path4851"
         style="font-weight:100;font-size:12px;font-family:'Noto Sans';-inkscape-font-specification:'Noto Sans, Thin';white-space:pre;fill:#ffffff;stroke:#ffffff;stroke-width:108.084;fill-opacity:1;stroke-opacity:1" />
      <path
         d="m 6196.4398,1079.2151 q 0,86.8892 -64.8503,137.4622 -63.5513,49.3066 -191.9569,49.3066 -71.3333,0 -129.7006,-13.0721 -58.3632,-14.2977 -95.9785,-31.0465 v -38.808 q 103.7605,50.573 225.6791,50.573 118.0296,0 169.9098,-41.5042 51.8803,-41.5042 51.8803,-112.8293 0,-50.6139 -28.5546,-80.43482 -27.2473,-31.04644 -75.2263,-49.2658 -46.6923,-19.60828 -103.7605,-36.35702 -59.6623,-17.97426 -110.2476,-36.35702 -49.2862,-19.60828 -79.1153,-53.18746 -28.5546,-35.1315 -28.5546,-98.57245 0,-80.4348 63.5513,-124.51258 63.5553,-45.385 172.5038,-45.385 60.9573,0 114.1366,11.43816 53.1752,10.21265 93.3844,27.36989 l -14.2569,32.27196 q -36.3161,-18.38276 -89.4913,-28.5954 -51.8803,-10.21265 -103.7605,-10.21265 -93.3844,0 -147.8587,35.1315 -53.1793,33.49748 -53.1793,102.45326 0,53.18746 25.9401,81.70117 27.2474,27.36989 71.3374,42.81141 45.3932,15.52322 97.2734,32.27196 57.0683,17.97426 110.2476,38.80806 53.1752,20.83379 86.8973,57.06826 33.7018,35.13147 33.7018,101.18687 z"
         id="path4853"
         style="font-weight:100;font-size:12px;font-family:'Noto Sans';-inkscape-font-specification:'Noto Sans, Thin';white-space:pre;fill:#ffffff;stroke:#ffffff;stroke-width:108.084;fill-opacity:1;stroke-opacity:1" />
    </g>
    <g
       id="g5062"
       transform="translate(-4489.0338,1481.5294)"
       style="fill:#ffffff;stroke:#ffffff;fill-opacity:1;stroke-opacity:1">
      <path
         d="M 7123.8011,1252.9935 6763.2335,372.33659 h -2.4511 q 1.2255,32.27196 1.2255,55.76105 0,22.05931 0,51.88024 v 773.01562 h -33.7017 V 326.95159 h 54.4743 l 352.7856,863.78561 h 4.0851 l 354.0846,-863.78561 h 51.8803 v 926.04191 h -33.7018 V 472.21627 q 0,-19.60828 0,-42.81142 0,-23.28483 1.2256,-55.76104 h -2.4511 l -360.5676,879.34969 z"
         id="path4855"
         style="font-weight:100;font-size:12px;font-family:'Noto Sans';-inkscape-font-specification:'Noto Sans, Thin';white-space:pre;fill:#ffffff;stroke:#ffffff;stroke-width:108.084;fill-opacity:1;stroke-opacity:1" />
      <path
         d="m 8052.4574,555.22465 q 88.1964,0 142.6707,42.77056 54.4742,42.81141 80.4144,115.44375 25.9401,71.32512 25.9401,162.13596 v 32.27196 h -509.7213 q -1.2256,156.90712 68.7392,241.22272 70.0384,84.3156 203.632,84.3156 62.2563,0 106.3545,-8.9871 45.3932,-8.9872 105.0555,-36.3571 v 35.1315 q -49.2863,22.0593 -99.8675,32.272 -49.2862,10.2126 -111.5425,10.2126 -107.6535,0 -176.3928,-45.4258 -67.4443,-45.385 -99.8715,-124.5126 -31.1281,-79.0867 -31.1281,-178.96639 0,-97.26524 32.4353,-179.00725 32.4354,-83.00839 97.2734,-132.27419 66.1494,-50.57302 166.0168,-50.57302 z m 0,32.27196 q -108.9485,0 -178.9868,73.93956 -68.7393,72.63233 -80.4144,214.0162 h 473.4093 q 1.2255,-128.39338 -51.8803,-207.52096 -53.1793,-80.4348 -162.1278,-80.4348 z"
         id="path4857"
         style="font-weight:100;font-size:12px;font-family:'Noto Sans';-inkscape-font-specification:'Noto Sans, Thin';white-space:pre;fill:#ffffff;stroke:#ffffff;stroke-width:108.084;fill-opacity:1;stroke-opacity:1" />
      <path
         d="m 8747.6526,1265.9839 q -147.8586,0 -219.1919,-88.1964 -71.3374,-88.1964 -71.3374,-254.21314 0,-177.70004 77.8204,-272.39169 77.8203,-95.95802 223.085,-95.95802 93.3844,0 150.4527,46.69222 58.3673,45.38499 79.1194,114.13653 h 2.451 q -1.2255,-44.11863 -2.451,-85.62283 0,-41.50419 0,-81.70116 V 267.26889 h 33.7017 v 985.72461 h -28.5545 l -2.4511,-146.5719 h -2.451 q -23.3665,64.8707 -80.4144,112.8701 -57.0682,46.6922 -159.5337,46.6922 z m 0,-32.2719 q 129.7007,0 184.1749,-84.3156 55.7733,-85.582 55.7733,-237.34191 v -4.08506 q 0,-155.64072 -57.0683,-237.38273 -57.0682,-83.00839 -172.5038,-83.00839 -128.4016,0 -197.1449,84.31561 -68.7393,83.00838 -68.7393,251.63959 0,155.64069 62.2563,233.46109 63.5512,76.5131 193.2518,76.5131 z"
         id="path4859"
         style="font-weight:100;font-size:12px;font-family:'Noto Sans';-inkscape-font-specification:'Noto Sans, Thin';white-space:pre;fill:#ffffff;stroke:#ffffff;stroke-width:108.084;fill-opacity:1;stroke-opacity:1" />
      <path
         d="m 9270.3481,317.84191 q 23.3665,0 28.5546,13.07219 6.4952,11.84667 6.4952,27.36989 0,16.74874 -6.4952,28.59541 -5.1881,11.84667 -28.5546,11.84667 -19.4449,0 -25.9401,-11.84667 -6.4952,-11.84667 -6.4952,-28.59541 0,-15.52322 6.4952,-27.36989 6.4952,-13.07219 25.9401,-13.07219 z m 16.8713,250.33238 v 684.81921 h -33.7017 V 568.17429 Z"
         id="path4861"
         style="font-weight:100;font-size:12px;font-family:'Noto Sans';-inkscape-font-specification:'Noto Sans, Thin';white-space:pre;fill:#ffffff;stroke:#ffffff;stroke-width:108.084;fill-opacity:1;stroke-opacity:1" />
      <path
         d="m 9747.6463,556.49102 q 106.3545,0 159.5338,58.37548 53.1752,57.06827 53.1752,184.19528 v 453.93172 h -28.5545 l -5.1881,-133.5814 h -2.451 q -27.2473,59.6418 -85.6024,103.7604 -58.3632,42.8114 -163.4228,42.8114 -102.4614,0 -155.6407,-49.3066 -51.8802,-49.2658 -51.8802,-131.0078 0,-102.45329 85.6024,-153.02631 86.9014,-51.88024 239.9481,-60.94907 l 133.5896,-7.76161 v -55.76105 q 0,-116.75097 -44.0982,-167.32399 -44.0982,-51.88024 -134.8886,-51.88024 -51.8803,0 -101.1665,11.84667 -47.9872,11.84667 -103.7605,40.03357 l -11.6832,-33.49748 q 51.8802,-23.28483 105.0554,-36.35701 54.4743,-14.29771 111.5425,-14.29771 z m 47.9913,346.33124 q -132.2946,6.53609 -212.709,49.2658 -79.1194,42.81142 -79.1194,133.58144 0,68.7515 44.0982,108.9485 44.0982,38.808 127.1066,38.808 129.7006,0 189.3629,-73.9395 60.9613,-73.9396 62.2563,-191.95692 v -71.32511 z"
         id="path4863"
         style="font-weight:100;font-size:12px;font-family:'Noto Sans';-inkscape-font-specification:'Noto Sans, Thin';white-space:pre;fill:#ffffff;stroke:#ffffff;stroke-width:108.084;fill-opacity:1;stroke-opacity:1" />
    </g>
  </g>
</svg>
