<?xml version="1.0" encoding="UTF-8" standalone="no"?>
<svg
   width="7791.2993"
   height="8959.2812"
   viewBox="0 0 2061.448 2370.4765"
   version="1.1"
   id="svg72"
   xmlns="http://www.w3.org/2000/svg"
   xmlns:svg="http://www.w3.org/2000/svg">
  <defs
     id="defs76" />
  <g
     id="g4731"
     transform="translate(115.80382)"
     style="fill:#1976d2;fill-opacity:1;stroke:#1976d2;stroke-opacity:1">
    <path
       style="opacity:0.996;fill:#1976d2;fill-opacity:1;stroke:#1976d2;stroke-width:10.6149px;stroke-linecap:butt;stroke-linejoin:miter;stroke-opacity:1"
       d="m 1696.2871,443.79791 c -14.6435,-24.8739 -29.287,-49.6675 -48.6245,-76.0258 a 756.12582,756.12582 0 0 0 -69.0048,-79.9976 988.85702,988.85702 0 0 0 -82.4049,-74.2205 1224.838,1224.838 0 0 0 -96.1254,-70.9707 705.17449,705.17449 0 0 0 -101.7824,-56.327399 1038.9257,1038.9257 0 0 0 -118.512,-43.449 1377.4915,1377.4915 0 0 0 -109.5654,-28.8858 c -28.3642,-6.0179001 -44.6125,-7.6628001 -52.6764,-8.5053001 -8.1041,-0.8024 -8.064,-0.8425 -51.51305,72.4151001 L 792.24192,370.82121 c -43.3688,73.2174 -43.20834,73.097 -42.96761,73.1371 0.24069,0 0.52147,0.2007 158.35032,0.2007 157.86887,0 473.24557,-0.1611 788.66247,-0.321 z"
       id="path56" />
    <path
       style="opacity:0.996;fill:#1976d2;fill-opacity:1;stroke:#1976d2;stroke-width:10.6149px;stroke-linecap:butt;stroke-linejoin:miter;stroke-opacity:1"
       d="m 1745.754,528.52951 -506.8655,-4.2927 476.375,829.86479 c 19.3374,-41.8442 38.6748,-83.6484 54.0405,-124.57 15.3255,-40.8814 26.6793,-80.8401 34.9037,-120.1167 8.2244,-39.2767 13.3195,-77.8713 16.4488,-111.21033 3.0491,-33.33902 4.1724,-61.42244 3.8113,-92.79562 a 1171.3993,1171.3993 0 0 0 -5.3759,-99.53564 c -3.2497,-33.4995 -8.024,-65.79544 -16.1681,-101.5015 -8.1442,-35.706 -19.6584,-74.8623 -29.7684,-104.711 a 960.37249,960.37249 0 0 0 -27.4014,-71.1313 z"
       id="path58" />
    <path
       style="opacity:0.996;fill:#1976d2;fill-opacity:1;stroke:#1976d2;stroke-width:10.6149px;stroke-linecap:butt;stroke-linejoin:miter;stroke-opacity:1"
       d="m 1661.7444,1441.6015 -248.5381,-432.2438 -472.92467,816.3446 c 46.81906,-2.8083 93.63817,-5.6968 143.14517,-15.0847 49.507,-9.3879 101.7422,-25.2751 147.2774,-42.2054 a 1016.1782,1016.1782 0 0 0 112.8953,-49.7477 c 28.4846,-14.804 46.5784,-26.4787 71.9337,-44.6125 a 1417.9716,1417.9716 0 0 0 83.2874,-64.1506 804.38919,804.38919 0 0 0 63.629,-60.5398 c 20.0595,-20.7817 42.0449,-44.0508 58.8949,-62.4254 16.85,-18.3746 28.6451,-31.8546 40.3999,-45.3347 z"
       id="path60" />
    <path
       style="opacity:0.996;fill:#1976d2;fill-opacity:1;stroke:#1976d2;stroke-width:10.6149px;stroke-linecap:butt;stroke-linejoin:miter;stroke-opacity:1"
       d="m 845.39982,1825.0605 250.98548,-424.8619 -950.02173,-2.8084 c 16.85002,24.0314 33.70008,48.0628 54.56205,74.2205 20.86195,26.2379 45.73583,54.562 73.81925,83.2472 28.08341,28.6852 59.37636,57.6914 95.60397,84.5712 36.22759,26.8799 77.34972,51.5531 116.34556,73.8193 39.03594,22.3062 75.90545,42.1251 111.61149,57.2099 35.70607,15.1249 70.3289,25.5158 103.1865,33.2989 32.81746,7.8232 63.94995,12.9986 87.62025,16.0878 23.71041,3.1293 39.9988,4.1724 56.28718,5.2155 z"
       id="path62" />
    <path
       style="opacity:0.996;fill:#1976d2;fill-opacity:1;stroke:#1976d2;stroke-width:10.6149px;stroke-linecap:butt;stroke-linejoin:miter;stroke-opacity:1"
       d="m 95.291865,1311.3747 503.014025,5.2155 -475.85336,-836.88569 c -15.16504,25.4757 -30.289964,50.9514 -41.844281,73.057 -11.514186,22.1057 -19.417668,40.8012 -26.278054,59.0955 -6.860371,18.2944 -12.677639,36.2276 -17.973378,56.1267 A 1306.681,1306.681 0 0 0 21.432499,732.1744 c -4.774184,22.46674 -9.468136,45.53526 -12.2363566,70.16841 -2.768213,24.59306 -3.610717,50.75075 -3.811318,74.01987 -0.24068,23.26911 0.121236,43.72988 0.521463,63.90981 0.401158,20.17994 0.842439,40.11917 1.685086,59.53685 0.842433,19.45776 2.086181,38.39406 4.7741696,55.92606 2.687982,17.5321 6.860378,33.7001 11.835163,52.4358 4.934647,18.6554 10.671697,39.8784 16.408725,59.7775 5.696926,19.859 11.393846,38.354 18.093747,56.3675 6.6999,18.0135 14.362652,35.4653 20.621258,49.9082 6.258576,14.4429 11.113013,25.7966 15.967429,37.1503 z"
       id="path64" />
    <path
       style="opacity:0.995004;fill:#1976d2;fill-opacity:1;fill-rule:nonzero;stroke:#1976d2;stroke-width:10.6316;stroke-linecap:butt;stroke-linejoin:miter;stroke-miterlimit:4;stroke-dasharray:none;stroke-opacity:1"
       d="M 173.60445,403.83921 430.00603,837.36685 904.6157,14.201911 a 982.91949,982.91949 0 0 0 -83.84905,4.3329 c -30.972,3.2095 -66.47744,9.0268 -100.97992,17.1709 a 722.14488,722.14488 0 0 0 -102.94577,32.617 1159.4437,1159.4437 0 0 0 -106.55649,49.868099 c -35.58571,18.6554 -70.60973,38.6748 -100.05719,58.5338 -29.44747,19.859 -53.31836,39.5174 -75.70486,57.7717 -22.42662,18.2141 -43.36882,34.9036 -61.9841,52.7967 -18.57518,17.8932 -34.78331,36.9097 -50.87111,56.528 -16.04765,19.5781 -32.09533,39.7981 -48.06276,60.0182 z"
       id="path66" />
  </g>
  <g
     id="g4890"
     transform="matrix(107.56106,0,0,107.56106,24545.907,-201195.25)"
     style="fill:#1976d2;fill-opacity:1;stroke:#1976d2;stroke-opacity:1">
    <path
       d="m -226.69733,1891.0938 q 0,0.2032 -0.10478,0.3397 -0.1016,0.1334 -0.27622,0.2001 -0.17145,0.064 -0.37783,0.064 -0.21907,0 -0.36195,-0.032 -0.1397,-0.029 -0.254,-0.06 v -0.092 q 0.127,0.044 0.27623,0.076 0.1524,0.029 0.34607,0.029 0.18098,0 0.3302,-0.054 0.1524,-0.057 0.24448,-0.1714 0.0921,-0.1175 0.0921,-0.3017 0,-0.1587 -0.0762,-0.254 -0.0762,-0.098 -0.21907,-0.1619 -0.1397,-0.067 -0.33655,-0.127 -0.18415,-0.06 -0.32703,-0.127 -0.14287,-0.07 -0.22542,-0.181 -0.0794,-0.1143 -0.0794,-0.3016 0,-0.1905 0.0952,-0.3175 0.0984,-0.127 0.26035,-0.1905 0.1651,-0.063 0.36513,-0.063 0.14922,0 0.28892,0.029 0.14288,0.025 0.28258,0.089 l -0.0349,0.073 q -0.14605,-0.063 -0.28257,-0.086 -0.13335,-0.025 -0.26035,-0.025 -0.16828,0 -0.31115,0.051 -0.14288,0.051 -0.23178,0.1587 -0.0857,0.1048 -0.0857,0.2763 0,0.1714 0.0794,0.273 0.0794,0.1016 0.21273,0.1619 0.13652,0.057 0.29845,0.108 0.2032,0.063 0.35242,0.1365 0.1524,0.07 0.23495,0.1842 0.0857,0.1111 0.0857,0.2984 z"
       id="path4841"
       style="font-weight:100;font-size:12px;font-family:'Noto Sans';-inkscape-font-specification:'Noto Sans, Thin';white-space:pre;fill:#1976d2;fill-opacity:1;stroke:#1976d2;stroke-width:0.264583;stroke-opacity:1" />
    <path
       d="m -226.19886,1889.3761 q 0.0572,0 0.0699,0.032 0.0159,0.029 0.0159,0.067 0,0.041 -0.0159,0.07 -0.0127,0.029 -0.0699,0.029 -0.0476,0 -0.0635,-0.029 -0.0159,-0.029 -0.0159,-0.07 0,-0.038 0.0159,-0.067 0.0159,-0.032 0.0635,-0.032 z m 0.0413,0.6128 v 1.6764 h -0.0825 v -1.6764 z"
       id="path4843"
       style="font-weight:100;font-size:12px;font-family:'Noto Sans';-inkscape-font-specification:'Noto Sans, Thin';white-space:pre;fill:#1976d2;fill-opacity:1;stroke:#1976d2;stroke-width:0.264583;stroke-opacity:1" />
    <path
       d="m -224.97013,1891.6971 q -0.36195,0 -0.53658,-0.2159 -0.17462,-0.2159 -0.17462,-0.6223 0,-0.435 0.1905,-0.6668 0.1905,-0.2349 0.5461,-0.2349 0.2286,0 0.3683,0.1143 0.14287,0.1111 0.19367,0.2794 h 0.006 q -0.003,-0.108 -0.006,-0.2096 0,-0.1016 0,-0.2 v -0.689 h 0.0825 v 2.413 h -0.0699 l -0.006,-0.3588 h -0.006 q -0.0572,0.1588 -0.19685,0.2763 -0.1397,0.1143 -0.39052,0.1143 z m 0,-0.079 q 0.3175,0 0.45085,-0.2064 0.13652,-0.2095 0.13652,-0.581 v -0.01 q 0,-0.381 -0.1397,-0.5811 -0.1397,-0.2032 -0.42227,-0.2032 -0.31433,0 -0.4826,0.2064 -0.16828,0.2032 -0.16828,0.616 0,0.381 0.1524,0.5715 0.15558,0.1873 0.47308,0.1873 z"
       id="path4845"
       style="font-weight:100;font-size:12px;font-family:'Noto Sans';-inkscape-font-specification:'Noto Sans, Thin';white-space:pre;fill:#1976d2;fill-opacity:1;stroke:#1976d2;stroke-width:0.264583;stroke-opacity:1" />
    <path
       d="m -223.69061,1889.3761 q 0.0571,0 0.0699,0.032 0.0159,0.029 0.0159,0.067 0,0.041 -0.0159,0.07 -0.0127,0.029 -0.0699,0.029 -0.0476,0 -0.0635,-0.029 -0.0159,-0.029 -0.0159,-0.07 0,-0.038 0.0159,-0.067 0.0159,-0.032 0.0635,-0.032 z m 0.0413,0.6128 v 1.6764 h -0.0825 v -1.6764 z"
       id="path4847"
       style="font-weight:100;font-size:12px;font-family:'Noto Sans';-inkscape-font-specification:'Noto Sans, Thin';white-space:pre;fill:#1976d2;fill-opacity:1;stroke:#1976d2;stroke-width:0.264583;stroke-opacity:1" />
    <path
       d="m -222.37933,1889.9572 q 0.27305,0 0.42228,0.1492 0.14922,0.1492 0.14922,0.4604 v 1.0985 h -0.0825 v -1.0954 q 0,-0.2794 -0.13017,-0.4064 -0.127,-0.127 -0.35878,-0.127 -0.27305,0 -0.4445,0.1651 -0.16827,0.162 -0.16827,0.5049 v 0.9588 h -0.0825 v -1.6764 h 0.0667 l 0.0127,0.3524 h 0.006 q 0.0381,-0.098 0.11113,-0.1841 0.0762,-0.089 0.19685,-0.1429 0.12382,-0.057 0.30162,-0.057 z"
       id="path4849"
       style="font-weight:100;font-size:12px;font-family:'Noto Sans';-inkscape-font-specification:'Noto Sans, Thin';white-space:pre;fill:#1976d2;fill-opacity:1;stroke:#1976d2;stroke-width:0.264583;stroke-opacity:1" />
    <path
       d="m -220.62038,1889.9572 q 0.23178,0 0.3556,0.092 0.127,0.089 0.19368,0.2286 h 0.006 l 0.0159,-0.2889 h 0.0699 v 1.7558 q 0,0.2 -0.0699,0.3524 -0.0667,0.1556 -0.21907,0.2413 -0.1524,0.089 -0.4064,0.089 -0.19368,0 -0.33655,-0.035 -0.1397,-0.035 -0.254,-0.083 v -0.095 q 0.1143,0.054 0.26352,0.092 0.14923,0.041 0.32703,0.041 0.33655,0 0.47307,-0.1651 0.1397,-0.1651 0.1397,-0.4381 v -0.1334 q 0,-0.092 0,-0.1587 0.003,-0.067 0.006,-0.1588 h -0.006 q -0.0572,0.1969 -0.21272,0.3017 -0.15558,0.1016 -0.39053,0.1016 -0.32385,0 -0.508,-0.2128 -0.18097,-0.2159 -0.18097,-0.6318 0,-0.4159 0.18415,-0.654 0.18415,-0.2413 0.54927,-0.2413 z m 0,0.079 q -0.33337,0 -0.49212,0.2159 -0.15558,0.2159 -0.15558,0.6001 0,0.3747 0.15558,0.5715 0.15875,0.1937 0.44767,0.1937 0.18733,0 0.3048,-0.063 0.11748,-0.067 0.18098,-0.1715 0.0667,-0.1079 0.0921,-0.2381 0.0254,-0.1302 0.0254,-0.2603 v -0.1524 q 0,-0.2001 -0.0508,-0.3556 -0.0508,-0.1588 -0.17145,-0.2477 -0.12065,-0.092 -0.33655,-0.092 z"
       id="path4851"
       style="font-weight:100;font-size:12px;font-family:'Noto Sans';-inkscape-font-specification:'Noto Sans, Thin';white-space:pre;fill:#1976d2;fill-opacity:1;stroke:#1976d2;stroke-width:0.264583;stroke-opacity:1" />
    <path
       d="m -218.38518,1891.2399 q 0,0.2127 -0.15875,0.3365 -0.15557,0.1207 -0.4699,0.1207 -0.17462,0 -0.3175,-0.032 -0.14287,-0.035 -0.23495,-0.076 v -0.095 q 0.254,0.1238 0.55245,0.1238 0.28893,0 0.41593,-0.1016 0.127,-0.1016 0.127,-0.2762 0,-0.1239 -0.0699,-0.1969 -0.0667,-0.076 -0.18415,-0.1206 -0.1143,-0.048 -0.254,-0.089 -0.14605,-0.044 -0.26988,-0.089 -0.12065,-0.048 -0.19367,-0.1302 -0.0699,-0.086 -0.0699,-0.2413 0,-0.1969 0.15557,-0.3048 0.15558,-0.1111 0.42228,-0.1111 0.14922,0 0.2794,0.028 0.13017,0.025 0.2286,0.067 l -0.0349,0.079 q -0.0889,-0.045 -0.21907,-0.07 -0.127,-0.025 -0.254,-0.025 -0.2286,0 -0.36195,0.086 -0.13018,0.082 -0.13018,0.2508 0,0.1302 0.0635,0.2 0.0667,0.067 0.17463,0.1048 0.11112,0.038 0.23812,0.079 0.1397,0.044 0.26988,0.095 0.13017,0.051 0.21272,0.1397 0.0825,0.086 0.0825,0.2477 z"
       id="path4853"
       style="font-weight:100;font-size:12px;font-family:'Noto Sans';-inkscape-font-specification:'Noto Sans, Thin';white-space:pre;fill:#1976d2;fill-opacity:1;stroke:#1976d2;stroke-width:0.264583;stroke-opacity:1" />
    <path
       d="m -216.11505,1891.6653 -0.88265,-2.1558 h -0.006 q 0.003,0.079 0.003,0.1365 0,0.054 0,0.127 v 1.8923 h -0.0825 v -2.2669 h 0.13335 l 0.8636,2.1145 h 0.01 l 0.86678,-2.1145 h 0.127 v 2.2669 h -0.0825 v -1.9113 q 0,-0.048 0,-0.1048 0,-0.057 0.003,-0.1365 h -0.006 l -0.88265,2.1526 z"
       id="path4855"
       style="font-weight:100;font-size:12px;font-family:'Noto Sans';-inkscape-font-specification:'Noto Sans, Thin';white-space:pre;fill:#1976d2;fill-opacity:1;stroke:#1976d2;stroke-width:0.264583;stroke-opacity:1" />
    <path
       d="m -213.84175,1889.9572 q 0.2159,0 0.34925,0.1047 0.13335,0.1048 0.19685,0.2826 0.0635,0.1746 0.0635,0.3969 v 0.079 h -1.24777 q -0.003,0.3841 0.16827,0.5905 0.17145,0.2064 0.49848,0.2064 0.1524,0 0.26035,-0.022 0.11112,-0.022 0.25717,-0.089 v 0.086 q -0.12065,0.054 -0.24447,0.079 -0.12065,0.025 -0.27305,0.025 -0.26353,0 -0.4318,-0.1112 -0.1651,-0.1111 -0.24448,-0.3048 -0.0762,-0.1936 -0.0762,-0.4381 0,-0.2381 0.0794,-0.4382 0.0794,-0.2032 0.23812,-0.3238 0.16193,-0.1238 0.4064,-0.1238 z m 0,0.079 q -0.2667,0 -0.43815,0.181 -0.16827,0.1778 -0.19685,0.5239 h 1.15888 q 0.003,-0.3143 -0.127,-0.508 -0.13018,-0.1969 -0.39688,-0.1969 z"
       id="path4857"
       style="font-weight:100;font-size:12px;font-family:'Noto Sans';-inkscape-font-specification:'Noto Sans, Thin';white-space:pre;fill:#1976d2;fill-opacity:1;stroke:#1976d2;stroke-width:0.264583;stroke-opacity:1" />
    <path
       d="m -212.13995,1891.6971 q -0.36195,0 -0.53657,-0.2159 -0.17463,-0.2159 -0.17463,-0.6223 0,-0.435 0.1905,-0.6668 0.1905,-0.2349 0.5461,-0.2349 0.2286,0 0.3683,0.1143 0.14288,0.1111 0.19368,0.2794 h 0.006 q -0.003,-0.108 -0.006,-0.2096 0,-0.1016 0,-0.2 v -0.689 h 0.0825 v 2.413 h -0.0699 l -0.006,-0.3588 h -0.006 q -0.0572,0.1588 -0.19685,0.2763 -0.1397,0.1143 -0.39053,0.1143 z m 0,-0.079 q 0.3175,0 0.45085,-0.2064 0.13653,-0.2095 0.13653,-0.581 v -0.01 q 0,-0.381 -0.1397,-0.5811 -0.1397,-0.2032 -0.42228,-0.2032 -0.31432,0 -0.4826,0.2064 -0.16827,0.2032 -0.16827,0.616 0,0.381 0.1524,0.5715 0.15557,0.1873 0.47307,0.1873 z"
       id="path4859"
       style="font-weight:100;font-size:12px;font-family:'Noto Sans';-inkscape-font-specification:'Noto Sans, Thin';white-space:pre;fill:#1976d2;fill-opacity:1;stroke:#1976d2;stroke-width:0.264583;stroke-opacity:1" />
    <path
       d="m -210.86042,1889.3761 q 0.0572,0 0.0699,0.032 0.0159,0.029 0.0159,0.067 0,0.041 -0.0159,0.07 -0.0127,0.029 -0.0699,0.029 -0.0476,0 -0.0635,-0.029 -0.0159,-0.029 -0.0159,-0.07 0,-0.038 0.0159,-0.067 0.0159,-0.032 0.0635,-0.032 z m 0.0413,0.6128 v 1.6764 h -0.0825 v -1.6764 z"
       id="path4861"
       style="font-weight:100;font-size:12px;font-family:'Noto Sans';-inkscape-font-specification:'Noto Sans, Thin';white-space:pre;fill:#1976d2;fill-opacity:1;stroke:#1976d2;stroke-width:0.264583;stroke-opacity:1" />
    <path
       d="m -209.69202,1889.9603 q 0.26035,0 0.39053,0.1429 0.13017,0.1397 0.13017,0.4509 v 1.1112 h -0.0699 l -0.0127,-0.327 h -0.006 q -0.0667,0.146 -0.20955,0.254 -0.14287,0.1048 -0.40005,0.1048 -0.25082,0 -0.381,-0.1207 -0.127,-0.1206 -0.127,-0.3207 0,-0.2508 0.20955,-0.3746 0.21273,-0.127 0.58738,-0.1492 l 0.32702,-0.019 v -0.1365 q 0,-0.2858 -0.10795,-0.4096 -0.10795,-0.127 -0.3302,-0.127 -0.127,0 -0.24765,0.029 -0.11747,0.029 -0.254,0.098 l -0.0286,-0.082 q 0.127,-0.057 0.25717,-0.089 0.13335,-0.035 0.27305,-0.035 z m 0.11748,0.8478 q -0.32385,0.016 -0.5207,0.1206 -0.19368,0.1048 -0.19368,0.327 0,0.1683 0.10795,0.2667 0.10795,0.095 0.31115,0.095 0.3175,0 0.46355,-0.181 0.14923,-0.181 0.1524,-0.4699 v -0.1746 z"
       id="path4863"
       style="font-weight:100;font-size:12px;font-family:'Noto Sans';-inkscape-font-specification:'Noto Sans, Thin';white-space:pre;fill:#1976d2;fill-opacity:1;stroke:#1976d2;stroke-width:0.264583;stroke-opacity:1" />
  </g>
</svg>
